<svg xmlns="http://www.w3.org/2000/svg" viewBox="0 0 400.5 400"><defs><style>.cls-1{fill:#08324f;}.cls-2{fill:#72bf44;}.cls-3{fill:none;}</style></defs><g id="Layer_2" data-name="Layer 2"><g id="Layer_1-2" data-name="Layer 1"><path class="cls-1" d="M240.31,235.92c-1,.13-15.9.11-16.72,0a6.12,6.12,0,0,1-.06-.63c0-1.11,0-2.23,0-3.35V204.46a43,43,0,0,0-.38-6.11,17.73,17.73,0,0,0-.93-3.8c-.09-.24-.18-.48-.28-.71a7,7,0,0,0-5.35-4.18,10.82,10.82,0,0,0-4.28,0,20.35,20.35,0,0,0-4.82,1.53c-.37.18-.72.4-1.09.62a4.39,4.39,0,0,0,.1.69,30.84,30.84,0,0,1,.92,6c.15,2.3.15,4.6.15,6.89v30.5c-.3,0-.55.08-.79.08H191.92l-1.08,0a3.58,3.58,0,0,1-.08-.59c0-.32,0-.64,0-1q0-15.27,0-30.54a32.06,32.06,0,0,0-.77-7.5,15.24,15.24,0,0,0-.8-2.45,7,7,0,0,0-5.47-4.29,18.34,18.34,0,0,0-4.68-.11c-1.08.07-2.16.21-3.24.34-.31,0-.61.12-1,.19-.05,1.07,0,2.08,0,3.1s0,2,0,3.06v39.69c-.3,0-.54.08-.78.08H159.17l-1.09,0c0-.23-.08-.41-.09-.59s0-.45,0-.67V178.66a2,2,0,0,1,1.1-.42A114.16,114.16,0,0,1,170.54,176c2.21-.31,4.43-.51,6.66-.67a72.55,72.55,0,0,1,7.37-.13,26.35,26.35,0,0,1,6.06.84,23.73,23.73,0,0,1,8.1,4l.78.59c.22-.12.42-.21.6-.33a31.49,31.49,0,0,1,12.21-4.78,30.69,30.69,0,0,1,8-.22,28,28,0,0,1,5.74,1,20.31,20.31,0,0,1,5,2.24,17.51,17.51,0,0,1,6.81,8.06,24.78,24.78,0,0,1,1.71,6,57.61,57.61,0,0,1,.78,9.81q0,16.19,0,32.36C240.33,235.11,240.32,235.49,240.31,235.92Z"></path><path class="cls-1" d="M19,236H1.58a3.5,3.5,0,0,1-.08-.47q0-38.81,0-77.63a1.11,1.11,0,0,1,.1-.29,2.25,2.25,0,0,1,.36-.06h52a3.42,3.42,0,0,1,.13.56c0,.67,0,1.34,0,2q0,5.51,0,11c0,.34,0,.69,0,1.06a3.4,3.4,0,0,1-.51.11c-.35,0-.7,0-1.05,0H20.57a4.12,4.12,0,0,0-1.38.1c0,.18-.07.36-.09.54a5.42,5.42,0,0,0,0,.57v14.07c0,.35,0,.7,0,1.08a3.91,3.91,0,0,0,.57.14c.35,0,.71,0,1.06,0H48.81a3.2,3.2,0,0,1,1.23.1,1.58,1.58,0,0,1,.15,1c0,1.79,0,3.58,0,5.37q0,3.58,0,7.17a1.78,1.78,0,0,1-.16,1.09c-1,.06-2,0-3,0H22.31c-1,0-2,0-3.1,0,0,.26-.1.48-.11.69s0,.64,0,1v29.38A4,4,0,0,1,19,236Z"></path><path class="cls-2" d="M334.06,211.71l-1.27,0H297.16a2.62,2.62,0,0,0-1.21.12,1.47,1.47,0,0,0,0,1,11.05,11.05,0,0,0,3.6,6.38,15,15,0,0,0,6.42,3.27,28,28,0,0,0,8.36.69c1.69-.1,3.37-.23,5.05-.48a41.08,41.08,0,0,0,8.8-2.19l.41-.15a2.39,2.39,0,0,1,.22.5c.53,3.14,1.05,6.29,1.57,9.43.16,1,.33,1.95.48,2.93,0,.21.05.43.08.71-.45.2-.88.4-1.32.57a38.7,38.7,0,0,1-6,1.7,67.08,67.08,0,0,1-9.67,1.31,52.66,52.66,0,0,1-8.79-.11,33.1,33.1,0,0,1-10.34-2.64,25.61,25.61,0,0,1-14.78-16.93,34.13,34.13,0,0,1-1.4-8.08c-.07-1.5-.16-3-.12-4.5a35.41,35.41,0,0,1,1.88-11,29.93,29.93,0,0,1,7.16-11.53,27.22,27.22,0,0,1,13.51-7.16,31.34,31.34,0,0,1,9.9-.43,27,27,0,0,1,7.78,1.88,23.25,23.25,0,0,1,13.11,13.21,34.31,34.31,0,0,1,2.15,8.41,55.65,55.65,0,0,1,.34,9.74c0,1-.13,2-.2,3A2.71,2.71,0,0,1,334.06,211.71Zm-38.19-11.55a3.44,3.44,0,0,0,1.21.1h19.83c.22,0,.45,0,.67,0a5.06,5.06,0,0,0,.58-.1c0-.26,0-.48,0-.69a14.44,14.44,0,0,0-1.21-4.8,9.86,9.86,0,0,0-7.13-5.69,12.88,12.88,0,0,0-1.52-.19,12,12,0,0,0-5,.58,10.26,10.26,0,0,0-6.26,6.19,24.63,24.63,0,0,0-1.1,3.86A6.92,6.92,0,0,0,295.87,200.16Z"></path><path class="cls-1" d="M104.79,234.41c-1.78.34-3.54.68-5.29,1s-3.33.58-5,.86c-2,.33-4,.54-6,.69-3.21.23-6.44.37-9.66.34a49.6,49.6,0,0,1-10.45-1.11,23.25,23.25,0,0,1-6.59-2.53,15.51,15.51,0,0,1-7.62-10.53,24.42,24.42,0,0,1-.26-8.94,15.48,15.48,0,0,1,7-10.81,22.76,22.76,0,0,1,7.37-3.12,45,45,0,0,1,6.32-1,53.49,53.49,0,0,1,7.27-.11,34.7,34.7,0,0,1,6.26.79l.44.07c.07-.08.13-.13.14-.18a12.2,12.2,0,0,0-.51-4.91,7.79,7.79,0,0,0-5.2-5.2,17.64,17.64,0,0,0-5-.79,53.48,53.48,0,0,0-7.26.34,44.84,44.84,0,0,0-7.52,1.39c-.61.17-1.2.36-1.78.54-.09-.1-.16-.14-.16-.19-.69-4.25-1.36-8.5-2-12.75a4.16,4.16,0,0,1,0-.5c.3-.1.57-.2.84-.27A60,60,0,0,1,69,175.71c2.09-.25,4.18-.54,6.28-.67s4.21-.11,6.32-.07a35.19,35.19,0,0,1,7.58.95A24.63,24.63,0,0,1,94,177.61a17.24,17.24,0,0,1,9.71,11.55A37.09,37.09,0,0,1,105,199q0,17.13,0,34.27A2.4,2.4,0,0,1,104.79,234.41ZM88.74,211a2.79,2.79,0,0,0-.39-.12c-1.14-.15-2.27-.32-3.42-.44a30.24,30.24,0,0,0-8.39.28A9.58,9.58,0,0,0,73.16,212a5.55,5.55,0,0,0-2.69,3.89,8.28,8.28,0,0,0,.33,4.16,4.91,4.91,0,0,0,2.28,2.73,10.49,10.49,0,0,0,2.49,1,20.1,20.1,0,0,0,4.17.54c2.3.09,4.59-.09,6.89-.19.54,0,1.08-.11,1.61-.18a3.82,3.82,0,0,0,.51-.18c.09-.71.15-10.79.07-12.29A4,4,0,0,0,88.74,211Z"></path><path class="cls-2" d="M370.35,213.3a36.23,36.23,0,0,0-5.16-13.82,32,32,0,0,0-5.92-6.74A36.84,36.84,0,0,0,354,189c-.17.21,0,.27.07.33s.4.32.6.48a36.5,36.5,0,0,1,13,19.11,41.9,41.9,0,0,1,1.59,9,14.67,14.67,0,0,0,.19,1.92c.37-.21.42-.55.55-.83a79.08,79.08,0,0,0,3.49-9.2c3.05-9.23,5.68-18.59,8.23-28,.4-1.47.78-2.95,1.18-4.43.07-.28.16-.55.25-.85.24,0,.46-.07.67-.07h15.9a7.23,7.23,0,0,1,.72.07c-.08.31-.13.59-.21.86-4.1,13.68-8.64,27.22-13.92,40.51q-4,10.17-8.67,20.11a68.51,68.51,0,0,1-3.67,6.93,32.1,32.1,0,0,1-4.92,6.33,19.19,19.19,0,0,1-10.44,5.22,37,37,0,0,1-8.79.33,33.47,33.47,0,0,1-8.67-1.86l-.71-.28a.88.88,0,0,1-.15-.12c0-.76,2.4-11.8,2.87-13.3a4.82,4.82,0,0,1,.52.11,27.23,27.23,0,0,0,4.36,1.08,21.05,21.05,0,0,0,6.29.12,8.51,8.51,0,0,0,5.34-2.91,20.55,20.55,0,0,0,2.94-4.69c.55-1.18,1.12-2.36,1.68-3.54,1-2.16,2-4.33,3.07-6.48a7,7,0,0,0,.62-2.29,21.12,21.12,0,0,0-.44-7.22,7.84,7.84,0,0,0-.23-.83,2,2,0,0,0-.62-1c-.77-.63-1.51-1.27-2.28-1.9a10.2,10.2,0,0,0-2.38-1.42c-3.3-1.44-6.68-2.69-10.09-3.85a20.33,20.33,0,0,1-8.24-5.05,18.16,18.16,0,0,1-5.11-10.38,25.61,25.61,0,0,1,.68-10.05,26.63,26.63,0,0,1,1.27-3.91,16.16,16.16,0,0,1,2.67-4.29c.12-.14.26-.26.46-.45.09.33.17.56.22.8a13.79,13.79,0,0,0,4.56,7.67,20.29,20.29,0,0,0,3.7,2.55c2.13,1.16,4.27,2.29,6.41,3.44,1.18.64,2.36,1.26,3.52,1.93.77.45,1.53.93,2.25,1.45a16.51,16.51,0,0,1,6.6,10.31,24.39,24.39,0,0,1,.27,7.53,48.62,48.62,0,0,1-.83,5.09A.89.89,0,0,1,370.35,213.3Z"></path><path class="cls-2" d="M276.75,223.38c-.79,4.61-1.56,9.13-2.34,13.67a2.57,2.57,0,0,1-.49.09,42.54,42.54,0,0,1-10.71-1.34,21.78,21.78,0,0,1-4.52-1.81,13.79,13.79,0,0,1-7.19-9.42,35.12,35.12,0,0,1-.83-8V152.28c0-.44,0-.88,0-1.38,1.86-.37,3.69-.61,5.5-.91l5.57-.9,5.54-.9a3.06,3.06,0,0,1,.15.53c0,.32,0,.64,0,1v63.07a22.27,22.27,0,0,0,.25,3.91c.07.4.14.82.24,1.21a6.26,6.26,0,0,0,3.24,4.07,10.52,10.52,0,0,0,3.26,1.08c.56.09,1.13.15,1.7.23C276.33,223.27,276.48,223.32,276.75,223.38Z"></path><path class="cls-1" d="M115.25,179.64c1.54-.48,3-1,4.4-1.36,2.79-.79,5.59-1.53,8.45-2.05a57.11,57.11,0,0,1,5.69-.74,64.64,64.64,0,0,1,7.75-.16,49.62,49.62,0,0,1,6.08.69c1.48.24,2.94.55,4.41.87.61.13,1.2.38,1.85.59-.13,1.22-.43,2.36-.65,3.5s-.46,2.32-.7,3.47-.46,2.25-.7,3.37-.42,2.31-.75,3.5l-1.06-.21c-1.84-.39-3.67-.84-5.52-1.15a29.1,29.1,0,0,0-8.49-.17c-1,.13-1.95.29-2.93.45a9.28,9.28,0,0,0-.94.24c0,.25-.07.46-.08.68s0,.58,0,.86v43.87l-.57.13H115.88c-.16,0-.31,0-.52-.05a5.12,5.12,0,0,1-.1-.54c0-.29,0-.58,0-.86V179.64Z"></path><rect class="cls-3" width="400" height="400"></rect></g></g></svg>