<svg xmlns="http://www.w3.org/2000/svg" viewBox="0 0 400.67 400"><defs><style>.cls-1{fill:#ff6200;}.cls-2{fill:none;}</style></defs><g id="Layer_2" data-name="Layer 2"><g id="Layer_1-2" data-name="Layer 1"><path class="cls-1" d="M395.31,221.53c-1.63,0-3,1.4-3.74,4.67-1.4,6.76-2.79,13.76-9.08,13.53-4,0-5.13-5.83-4.9-7.23l.7-36.62a6.57,6.57,0,0,0-6.09-7,6.2,6.2,0,0,0-1.14,0c-2.1,0-4.9.47-4.9,1.63s1.63,1.4,1.4,6.07l-.47,21.9c0,11-7,21-13.06,20.76,0,0-13.52,4.2-5.59-42,.7-3.5,3.5-8.4-2.34-8.63-8.16-.24-7.23,3-8.39,5.59a281.55,281.55,0,0,0-2.57,32.43v.7c-1.87,5.59-4.67,11.19-9.33,11-3.27,0-5.34-2.33-5.13-7.23l.7-47.82c8.16.23,16.33.23,28.92.23,4,0,5.83-14.92,1.16-10.49-10.49.23-20.52.23-29.85.23l.23-14.69c0-3.74-3.26-7-8.39-7-2.1,0-4.9.47-5.13,1.63s1.63,1.4,1.4,6.07L309.48,173c-8.39-.23-14-.7-14-.7-4.44,0-1.87,10.49,3,10.49a98.54,98.54,0,0,0,10.73.47l-.7,40.35c-1.63,6.54-4.66,14.7-10.26,14.47-4,0-4-5.84-4-7.24l.47-29.15c.23-7.23-2.34-15.86-12.59-15.86-7.7-.24-13.3,6.53-17.73,15.16v-7c0-3.74-3.27-7-8.4-7-2.1,0-4,.94-4.2,2.57a44.62,44.62,0,0,1,.46,4.9l-.46,24c-.27.69-.5,1.39-.7,2.1-1.4,6.76-4.43,16.79-10.73,16.56-3.74,0-5.34-3.74-5.13-7.23l.47-22.62c0-3.74-3.27-7-8.4-7-2.1,0-4.2.93-4.2,2.57a19.6,19.6,0,0,1,.47,4.89l-.24,21c-1.86,4.43-4.66,7.93-8.86,7.93-5.34,0-8.86-4.9-8.63-13.06.47-22.4,14.46-29.16,26.12-29.16,1.64,0,3,.46,4.44.46s2.1-.93,2.1-3.49A6.69,6.69,0,0,0,232,184.7h-.38c-19.13-.24-37.32,12.12-37.79,38.24a17.76,17.76,0,0,0,.23,3.5c-1.86,5.13-4.43,9.57-8.86,9.57a5.5,5.5,0,0,1-5.13-4.2L181.2,159c0-6.76-3-10-8.17-10-2.1,0-4.89.46-5.13,1.63s1.63,1.4,1.4,6.06l-.47,27.53c-17,2.1-31.72,12.59-32.18,36.39v3.26c-3,6.3-8.17,11.43-16.8,11.19A14.3,14.3,0,0,1,106.44,227h0c14.23-8.4,23.56-17,23.79-27.52.24-9.34-5.13-15.87-13.76-16.1-11.9-.23-24.72,11.9-25,31.72a45.51,45.51,0,0,0,1.4,9.79,97.35,97.35,0,0,1-26.52,15c6.42-29.81,12.67-56.47,19.17-87.4,1.87-6.06,4-7.48,2.57-8.62-3.27-2.8-12.82-1.87-14.23,5.34-3.26,17.26-8.16,39.18-12.13,56a28.5,28.5,0,0,0-18.16,4.19c-8.17-12.82-19.13-31-28.22-45.48-3.5-5.6-13.07-3.74-15.17,0-.93,1.64,1.17,1.4,4.2,6.3,17.73,26.59,30.56,50.85,50.15,76a6,6,0,0,0,7,2v.3l3.29-1.6-3.06,1.6c8.86-1.4,20.06-6.3,34.52-15.39A24.87,24.87,0,0,0,119,246.24a27.35,27.35,0,0,0,21.9-8.63,17.76,17.76,0,0,0,16.09,9.08,20.32,20.32,0,0,0,14-5.79,13.54,13.54,0,0,0,11.66,6.29,18.64,18.64,0,0,0,15.16-7.93,16.76,16.76,0,0,0,14.69,8.4A18,18,0,0,0,226,241.6a13.83,13.83,0,0,0,11.9,6.54,18.17,18.17,0,0,0,14-6.53c0,5.6,4.2,6.77,7.48,6.77,4.44,0,4.44-3.74,4.44-6.54l.46-22.85c1.4-12.37,11.2-22.4,15.63-22.4,3,0,3.26,4.2,3,8.87l-.47,28.45c-.23,7.93,4.67,14.7,12.83,14.93a18.83,18.83,0,0,0,14.7-7.23,12.43,12.43,0,0,0,12.35,7.7,18.66,18.66,0,0,0,15.17-7.7,14.67,14.67,0,0,0,13.29,8.4c6.77,0,11.9-4.43,15.86-11a12.49,12.49,0,0,0,12.6,11.22c13.53.24,18.17-10.73,21.22-21a2.9,2.9,0,0,0,.24-1.16C400.66,225,397.86,221.53,395.31,221.53ZM115.16,193.78c2.1,0,3.27,2.1,3.27,5.6-.24,9.33-6.54,14-13.53,18.42,0-.93-.23-1.87-.23-2.79C104.43,208.24,107.46,193.78,115.16,193.78Zm53.65,37.08a10.82,10.82,0,0,1-9.11,6.06c-5.35,0-10.5-4.9-10.27-16.1.24-19.59,9.8-26.59,20.06-28.45Z"></path><rect class="cls-2" width="400" height="400"></rect></g></g></svg>