<svg xmlns="http://www.w3.org/2000/svg" viewBox="0 0 400.83 400"><defs><style>.cls-1{fill:#f30711;}.cls-2{fill:none;}</style></defs><g id="Layer_2" data-name="Layer 2"><g id="Layer_1-2" data-name="Layer 1"><path class="cls-1" d="M234.46,206.58l-8.77,48.34c-3.56,0-7,.07-10.5-.09-.48,0-1.17-1.18-1.32-1.89-1.56-7.74-3-15.5-4.52-23.25s-3.07-15.74-5-23.58v56.24H192.28V186.2h15c5.95,0,5.89,0,7.08,5.82,2,9.83,4.13,19.64,6.65,29.5q.65-3.48,1.28-7c1.62-8.93,3.21-17.87,4.88-26.79.11-.58.87-1.48,1.33-1.49,6.74-.1,13.48-.07,20.39-.07v76.16H235.06V206.58Z"></path><path class="cls-1" d="M348.08,262.38H334.59V229.05H320.75v33.29H307.08v-76h13.59v29.15h13.8V186.38h13.61Z"></path><path class="cls-1" d="M399.83,262.49c-3.85,0-7.47.07-11.08-.09-.47,0-1.17-1.16-1.28-1.87-.84-5.09-1.56-10.2-2.35-15.55-5.2,0-10.28,0-15.37.07-.36,0-.93,1-1,1.58-.83,5.17-1.58,10.35-2.38,15.69h-12.2c4.58-25.39,9.12-50.63,13.71-76.12h14c4.38,0,4.35,0,5.13,4.31q6.19,34.35,12.41,68.68C399.59,260.19,399.67,261.21,399.83,262.49ZM377.2,200.65l-.47.11c-1.81,11.09-3.61,22.19-5.43,33.39h11.46Z"></path><path class="cls-1" d="M185.89,262.37H173.76c-.82-5.29-1.68-10.45-2.39-15.63-.2-1.42-.71-1.84-2.11-1.81-4.08.08-8.16.1-12.23,0-1.64,0-2.34.4-2.55,2.13-.55,4.54-1.38,9.05-2,13.59-.18,1.37-.62,1.92-2.06,1.89-3.32-.09-6.65,0-10.29,0,.29-1.91.51-3.62.82-5.32q6.17-34.08,12.3-68.19c.37-2.09,1-3,3.32-2.86,5.1.21,10.21.07,15.55.07C176.73,211.61,181.29,236.9,185.89,262.37ZM157.2,234.18h11.5c-1.84-11.26-3.66-22.32-5.47-33.39l-.51.05Z"></path><path class="cls-1" d="M300.67,262.39H288.56c-.9-5.82-1.79-11.56-2.71-17.43-5.08,0-10,0-14.85,0-1.62,0-1.41,1.22-1.56,2.16-.78,5-1.53,10.06-2.32,15.23h-12c.18-1.24.32-2.45.54-3.64q6.27-34.84,12.5-69.71c.38-2.1,1-3,3.34-2.86,4.59.21,9.19.1,13.79,0,1.25,0,1.78.34,2,1.67q5.75,32.34,11.61,64.67C299.47,255.76,300.06,259,300.67,262.39ZM278.1,200.9l-.53,0c-1.83,11.07-3.66,22.14-5.5,33.33h11.54C281.76,223,279.93,211.94,278.1,200.9Z"></path><path class="cls-1" d="M130.05,262.5h-15v-2.57c0-7.17-.18-14.34.07-21.5.15-4.45-1.5-8.39-2.73-12.45-3.81-12.64-7.74-25.25-11.62-37.87-.17-.55-.26-1.12-.44-1.91,4.65,0,9.17,0,13.68.08.48,0,1.19.93,1.36,1.55,2.29,8.33,4.49,16.67,6.71,25,.19.7.4,1.4.79,2.79,1.19-4,2.21-7.45,3.22-10.87,1.64-5.59,3.32-11.17,4.88-16.78a2.09,2.09,0,0,1,2.46-1.82c3.7.1,7.4,0,11.39,0l-4.73,15.44q-4.81,15.66-9.61,31.32a11.55,11.55,0,0,0-.44,3.26c0,7.83,0,15.66,0,23.5Z"></path><path class="cls-1" d="M46,268.34C24.71,270.41.14,251.09,0,223.18-.12,198,20.6,177.31,45.93,177.29a46,46,0,0,1,45.84,45.76C91.76,250.72,67.38,270.33,46,268.34Zm44.59-45.17A44.69,44.69,0,0,0,1.17,223c-.07,24.35,20,44.64,44.18,44.68C70.45,267.72,90.51,248,90.54,223.17Z"></path><path class="cls-1" d="M87.16,223a41.28,41.28,0,1,1-41.1-41.14A41.28,41.28,0,0,1,87.16,223Zm-46.32,8.88v18.57h3.28V248c0-5.39.06-10.79,0-16.18,0-1.65.61-2.73,2.12-2.72S48,230.36,48,231.8c-.06,5.46,0,10.93,0,16.4,0,.77.12,1.54.17,2.23h3.3V231.81c1,.49,1.64.76,2.25,1.15,2.52,1.62,5,2.58,8.13,1.39,2.08-.8,3.5.28,4.73,2.61.28.55.68,1.38,1.13,1.45,3.07.54,6.17.91,9.79,1.41-2.34-2.7-4.23-5-6.24-7.1a2.54,2.54,0,0,0-1.92-.49c-3.09.35-4.42-.36-5.29-3.36a6.26,6.26,0,0,0-3.53-4.28c-1.09-.5-2.11-1.16-3.41-1.89l15.23-8.64-1.65-2.78c-.77.41-1.42.73-2,1.08-4.64,2.61-9.31,5.19-13.92,7.88a2.17,2.17,0,0,1-3.21-.8c-.66-1.05,0-2,1.2-2.61,3.08-1.61,6.08-3.38,9.1-5.1l7-4-1.65-2.82-15.78,8.85c0-1.17-.06-1.9,0-2.62.31-3-.28-5.61-2.73-7.76-1.77-1.55-1.07-3.47,0-5.22.36-.58.94-1.37.78-1.86-.95-2.91-2.09-5.75-3.37-9.17-1.3,3.42-2.42,6.27-3.44,9.16a1.83,1.83,0,0,0,.4,1.34c2.18,3.28,2,3.89-.47,7a10.45,10.45,0,0,0-1.71,4.54,25.81,25.81,0,0,0-.06,4.78l-16.66-9-1.53,2.95C28.38,211,33.9,214,39.46,217c1.21.63,1.79,1.54,1.11,2.63a2,2,0,0,1-3,.84c-1.32-.81-2.71-1.51-4.08-2.25l-12.78-6.87-1.58,2.86,16,8.71a20.71,20.71,0,0,1-1.94,1.18c-3,1.33-5.2,3.15-5.91,6.62-.45,2.22-2.52,2.38-4.49,2.3-.68,0-1.65-.09-2,.29-2.07,2.26-4,4.65-6.33,7.44,3.21-.5,5.82-.95,8.45-1.27a2.72,2.72,0,0,0,2.58-1.93c.7-1.83,2.13-3.37,4.27-2.59,3.28,1.21,5.91.16,8.53-1.58C38.9,232.91,39.63,232.57,40.84,231.91Z"></path><path class="cls-1" d="M33.53,232.06c-.79-.5-1.51-.71-1.66-1.11s-.17-1.56.16-1.8a61.27,61.27,0,0,1,6.47-4.09c.41-.22,1.6.41,2,.95s.32,1.79,0,2C38.25,229.46,35.87,230.73,33.53,232.06Z"></path><path class="cls-1" d="M48,212.37a6.41,6.41,0,0,1-.08,2.6,3,3,0,0,1-2,1.51,2.32,2.32,0,0,1-1.68-1.55,22.65,22.65,0,0,1,.1-5.7c.12-.77,1.14-1.41,1.76-2.11a8.64,8.64,0,0,1,1.73,2.2,10.85,10.85,0,0,1,.25,3Z"></path><path class="cls-1" d="M58.17,231.43C56,230.27,53.8,229.2,51.74,228a1.8,1.8,0,0,1-.26-1.75c.63-.61,1.82-1.45,2.33-1.22a38.47,38.47,0,0,1,5.84,3.51,1.88,1.88,0,0,1,.25,1.76C59.69,230.73,58.92,231,58.17,231.43Z"></path><path class="cls-1" d="M48.82,223c-1.26.9-2,1.82-2.73,1.84-1.06,0-2.36-.64-1.89-2a3.21,3.21,0,0,1,2.08-1.85C46.85,220.82,47.63,221.94,48.82,223Z"></path><rect class="cls-2" x="0.83" width="400" height="400"></rect></g></g></svg>