<svg xmlns="http://www.w3.org/2000/svg" xmlns:xlink="http://www.w3.org/1999/xlink" width="70px" height="70px" viewBox="0 0 70 70"><g id="surface1"><path style=" stroke:none;fill-rule:nonzero;fill:rgb(88.627452%,0%,8.235294%);fill-opacity:1;" d="M 43.460938 39.449219 C 43.566406 39.757812 43.652344 39.988281 43.726562 40.222656 C 43.820312 40.492188 43.902344 40.773438 43.964844 41.054688 C 43.996094 41.253906 43.988281 41.457031 43.941406 41.652344 C 43.640625 42.792969 42.5625 43.554688 41.375 43.460938 C 40.238281 43.351562 38.886719 41.929688 39.511719 40.492188 C 39.621094 40.242188 39.722656 39.984375 39.824219 39.722656 C 39.851562 39.632812 39.871094 39.539062 39.882812 39.445312 C 39.652344 39.519531 39.457031 39.558594 39.277344 39.636719 C 38.523438 39.933594 37.78125 40.273438 37.015625 40.539062 C 34.542969 41.390625 31.972656 41.941406 29.363281 42.179688 C 27.757812 42.347656 26.136719 42.34375 24.535156 42.15625 C 23.417969 42.015625 22.328125 41.773438 21.339844 41.21875 C 20.984375 41.023438 20.65625 40.785156 20.359375 40.507812 C 19.660156 39.84375 19.523438 39.035156 19.925781 38.15625 C 20.195312 37.609375 20.554688 37.117188 21 36.707031 C 22.050781 35.671875 23.277344 34.886719 24.570312 34.199219 C 25.359375 33.78125 26.15625 33.367188 26.953125 32.9375 C 27.808594 32.492188 28.722656 32.164062 29.664062 31.957031 C 30.191406 31.84375 30.695312 31.710938 31.265625 31.578125 C 31.242188 31.445312 31.199219 31.316406 31.140625 31.195312 C 30.6875 30.5 30.441406 29.714844 30.074219 28.980469 C 29.460938 27.75 29.199219 26.429688 29.042969 25.085938 C 28.820312 23.253906 28.925781 21.394531 29.355469 19.597656 C 29.777344 17.839844 30.53125 16.171875 31.578125 14.691406 C 32.425781 13.527344 33.175781 12.289062 33.8125 11 C 34.558594 9.460938 35.066406 7.820312 35.316406 6.132812 C 35.539062 4.488281 35.480469 2.859375 34.902344 1.277344 C 34.824219 1.066406 34.757812 0.851562 34.6875 0.632812 C 34.683594 0.582031 34.679688 0.53125 34.679688 0.480469 C 34.777344 0.480469 34.875 0.492188 34.96875 0.515625 C 35.429688 0.691406 35.898438 0.863281 36.335938 1.085938 C 38.128906 1.992188 39.691406 3.171875 40.886719 4.796875 C 42.230469 6.625 43.050781 8.769531 43.273438 11.015625 C 43.363281 12.023438 43.371094 13.035156 43.285156 14.042969 C 43.257812 14.476562 43.285156 14.910156 43.285156 15.390625 C 43.417969 15.324219 43.542969 15.269531 43.65625 15.195312 C 44.300781 14.765625 44.832031 14.1875 45.210938 13.511719 C 45.949219 12.234375 46.351562 10.796875 46.390625 9.328125 C 46.390625 9.226562 46.390625 9.128906 46.390625 8.96875 C 46.527344 8.992188 46.667969 9.03125 46.800781 9.085938 C 47.152344 9.261719 47.484375 9.46875 47.804688 9.699219 C 49.25 10.84375 50.449219 12.265625 51.328125 13.878906 C 52.648438 16.207031 53.464844 18.78125 53.726562 21.441406 C 53.933594 23.3125 53.804688 25.203125 53.351562 27.035156 C 52.730469 29.46875 51.425781 31.496094 49.621094 33.222656 C 48.140625 34.636719 46.386719 35.652344 44.519531 36.480469 C 44.25 36.582031 43.980469 36.675781 43.699219 36.75 L 43.644531 36.675781 C 43.714844 36.566406 43.789062 36.457031 43.863281 36.351562 C 44.367188 35.671875 44.882812 34.992188 45.375 34.308594 C 46.457031 32.792969 47.035156 31.078125 47.296875 29.257812 C 47.472656 28.074219 47.234375 26.917969 46.835938 25.796875 C 46.371094 24.457031 45.59375 23.246094 44.558594 22.265625 C 44.289062 22.003906 44.125 22.042969 44.035156 22.394531 C 43.871094 23.007812 43.617188 23.589844 43.285156 24.132812 C 43.15625 24.332031 43.007812 24.523438 42.84375 24.699219 C 42.746094 24.789062 42.644531 24.867188 42.53125 24.929688 L 42.460938 24.875 C 42.527344 24.652344 42.578125 24.421875 42.664062 24.203125 C 43.25 22.722656 43 21.355469 42.074219 20.089844 C 41.207031 18.910156 40.042969 17.976562 38.691406 17.382812 C 38.484375 17.261719 38.242188 17.214844 38 17.234375 C 38.097656 17.453125 38.175781 17.65625 38.269531 17.863281 C 38.398438 18.148438 38.515625 18.445312 38.609375 18.746094 C 38.828125 19.554688 38.644531 20.332031 38.285156 21.054688 C 37.9375 21.75 37.535156 22.402344 37.148438 23.066406 C 36.445312 24.246094 35.863281 25.476562 35.609375 26.832031 C 35.113281 29.25 35.417969 31.761719 36.472656 33.996094 C 36.851562 34.769531 37.367188 35.472656 37.996094 36.058594 C 38.199219 36.234375 38.367188 36.441406 38.488281 36.679688 C 38.210938 36.617188 37.996094 36.578125 37.800781 36.523438 C 36.996094 36.277344 36.230469 35.921875 35.527344 35.472656 C 34.359375 34.773438 33.300781 33.914062 32.382812 32.910156 C 32.140625 32.65625 31.921875 32.371094 31.738281 32.070312 C 31.59375 31.816406 31.429688 31.792969 31.179688 31.835938 C 29.96875 32.035156 28.835938 32.5625 27.910156 33.367188 C 27.730469 33.523438 27.5625 33.695312 27.414062 33.886719 C 26.71875 34.777344 26.777344 35.664062 27.574219 36.464844 C 28.148438 37.042969 28.859375 37.398438 29.597656 37.722656 C 30.730469 38.21875 31.933594 38.480469 33.15625 38.671875 C 34.933594 38.972656 36.734375 39.109375 38.542969 39.070312 C 39 39.058594 39.453125 38.988281 39.910156 38.945312 C 40.21875 38.917969 40.5 38.75 40.671875 38.488281 C 40.886719 38.164062 41.074219 37.824219 41.277344 37.488281 C 41.386719 37.3125 41.492188 37.125 41.636719 36.894531 C 41.800781 37.121094 41.929688 37.289062 42.042969 37.46875 C 42.261719 37.8125 42.480469 38.148438 42.699219 38.488281 C 42.890625 38.808594 43.242188 39.007812 43.617188 39.011719 C 45.328125 39.109375 47.046875 39.070312 48.757812 38.898438 C 50.238281 38.753906 51.695312 38.429688 53.101562 37.945312 C 53.792969 37.726562 54.449219 37.414062 55.050781 37.011719 C 55.382812 36.785156 55.6875 36.511719 55.953125 36.207031 C 56.523438 35.53125 56.554688 34.761719 56.015625 34.054688 C 55.75 33.714844 55.441406 33.414062 55.09375 33.160156 C 54.28125 32.558594 53.34375 32.191406 52.386719 31.882812 C 52.242188 31.84375 52.105469 31.785156 51.980469 31.710938 C 52.363281 31.640625 52.757812 31.667969 53.125 31.789062 C 53.792969 31.949219 54.445312 32.152344 55.085938 32.40625 C 56.75 33.09375 58.375 33.871094 59.953125 34.742188 C 61 35.3125 61.945312 36.0625 62.738281 36.957031 C 63.152344 37.398438 63.46875 37.933594 63.65625 38.507812 C 63.886719 39.183594 63.726562 39.925781 63.234375 40.449219 C 62.851562 40.867188 62.378906 41.199219 61.847656 41.425781 C 60.9375 41.824219 59.972656 42.070312 58.984375 42.164062 C 56.4375 42.472656 53.910156 42.238281 51.394531 41.835938 C 49.453125 41.5 47.550781 40.96875 45.722656 40.242188 C 45.128906 40.019531 44.53125 39.8125 43.929688 39.601562 C 43.808594 39.550781 43.675781 39.519531 43.460938 39.449219 Z M 58.179688 34.242188 C 58.226562 34.414062 58.253906 34.507812 58.28125 34.601562 C 58.546875 35.519531 58.355469 36.335938 57.648438 36.984375 C 57.34375 37.253906 57.015625 37.496094 56.667969 37.699219 C 55.945312 38.097656 55.175781 38.40625 54.375 38.609375 C 51.953125 39.285156 49.433594 39.574219 46.917969 39.46875 C 46.445312 39.449219 45.976562 39.429688 45.511719 39.421875 C 45.300781 39.421875 45.078125 39.410156 44.902344 39.632812 C 44.988281 39.683594 45.078125 39.730469 45.175781 39.773438 C 45.542969 39.902344 45.917969 40.042969 46.292969 40.152344 C 49.296875 41.023438 52.421875 41.398438 55.546875 41.265625 C 56.769531 41.21875 57.976562 40.980469 59.121094 40.570312 C 59.664062 40.382812 60.171875 40.101562 60.609375 39.742188 C 61.375 39.082031 61.609375 38.179688 61.21875 37.25 C 61.097656 36.957031 60.9375 36.679688 60.75 36.429688 C 60.140625 35.648438 59.40625 34.980469 58.570312 34.445312 C 58.445312 34.371094 58.3125 34.304688 58.179688 34.242188 Z M 24.992188 34.523438 C 24.90625 34.542969 24.820312 34.570312 24.738281 34.605469 C 23.628906 35.265625 22.765625 36.152344 22.300781 37.367188 C 21.953125 38.304688 22.195312 39.171875 22.980469 39.8125 C 23.394531 40.144531 23.871094 40.398438 24.378906 40.570312 C 25.492188 40.964844 26.65625 41.199219 27.835938 41.265625 C 29.410156 41.351562 30.988281 41.296875 32.550781 41.101562 C 34.714844 40.859375 36.808594 40.289062 38.867188 39.605469 C 39.046875 39.535156 39.222656 39.457031 39.390625 39.367188 C 39.140625 39.3125 38.875 39.300781 38.617188 39.3125 C 37.804688 39.355469 36.996094 39.414062 36.1875 39.445312 C 35.730469 39.464844 35.269531 39.445312 34.816406 39.445312 C 32.792969 39.445312 30.78125 39.164062 28.839844 38.597656 C 27.683594 38.292969 26.605469 37.746094 25.675781 36.996094 C 25.089844 36.546875 24.804688 35.808594 24.9375 35.085938 C 24.964844 34.90625 24.972656 34.734375 24.992188 34.523438 Z M 24.992188 34.523438 "></path><path style=" stroke:none;fill-rule:nonzero;fill:rgb(0%,32.156864%,12.156863%);fill-opacity:1;" d="M 49.429688 60.46875 C 49.164062 60.328125 48.984375 60.238281 48.8125 60.140625 C 47.625 59.476562 46.242188 59.253906 44.90625 59.527344 C 43.347656 59.84375 42.398438 60.851562 41.984375 62.351562 C 41.660156 63.476562 41.789062 64.6875 42.335938 65.730469 C 43.222656 67.476562 44.976562 67.871094 46.449219 67.609375 C 46.828125 67.570312 47.125 67.28125 47.167969 66.914062 C 47.226562 66.539062 47.246094 66.160156 47.234375 65.78125 C 47.222656 65.28125 47.167969 64.777344 47.128906 64.273438 C 47.121094 64.128906 47.117188 63.976562 47.109375 63.792969 C 47.742188 63.734375 48.34375 63.660156 48.9375 63.859375 C 49.207031 63.949219 49.417969 64.167969 49.488281 64.445312 C 49.535156 64.574219 49.5625 64.710938 49.578125 64.851562 C 49.617188 65.769531 49.691406 66.691406 49.519531 67.605469 C 49.375 68.570312 48.675781 69.359375 47.730469 69.628906 C 46.960938 69.855469 46.160156 69.953125 45.355469 69.910156 C 43.984375 69.914062 42.652344 69.457031 41.578125 68.613281 C 40.179688 67.5 39.457031 66.035156 39.316406 64.269531 C 39.257812 63.578125 39.304688 62.878906 39.46875 62.199219 C 39.523438 61.976562 39.542969 61.734375 39.582031 61.476562 C 39.40625 61.460938 39.230469 61.460938 39.054688 61.476562 C 37.5625 61.71875 36.089844 62.0625 34.648438 62.519531 C 33.953125 62.761719 33.273438 63.050781 32.621094 63.390625 C 31.257812 64.070312 29.792969 64.53125 28.285156 64.757812 C 27.210938 64.921875 26.121094 64.875 25.0625 64.632812 C 24.757812 64.546875 24.453125 64.4375 24.15625 64.320312 L 24.171875 64.242188 L 24.789062 64.191406 L 24.800781 64.128906 C 24.761719 64.085938 24.71875 64.058594 24.671875 64.042969 C 22.652344 63.535156 20.832031 62.597656 19.074219 61.53125 C 18.296875 61.046875 17.476562 60.636719 16.621094 60.3125 C 15.03125 59.730469 13.386719 59.574219 11.710938 59.617188 C 10.3125 59.664062 8.941406 59.953125 7.582031 60.285156 C 7.386719 60.351562 7.171875 60.351562 6.972656 60.285156 C 7.046875 60.226562 7.125 60.171875 7.210938 60.125 C 8.683594 59.46875 10.273438 59.101562 11.890625 59.042969 C 14.015625 58.953125 16.058594 59.375 18.054688 60.0625 C 19.839844 60.679688 21.625 61.308594 23.417969 61.898438 C 24.570312 62.304688 25.765625 62.578125 26.976562 62.703125 C 27.726562 62.765625 28.476562 62.777344 29.222656 62.742188 C 31.195312 62.640625 33.125 62.25 35.070312 61.925781 C 36.507812 61.679688 37.953125 61.484375 39.398438 61.285156 C 39.589844 61.277344 39.757812 61.164062 39.839844 60.992188 C 40.015625 60.667969 40.1875 60.347656 40.378906 60.035156 C 41.265625 58.589844 42.746094 57.605469 44.429688 57.347656 C 45.058594 57.257812 45.691406 57.210938 46.328125 57.195312 C 46.515625 57.183594 46.707031 57.195312 46.945312 57.195312 C 46.945312 57.03125 46.960938 56.886719 46.960938 56.742188 C 46.972656 54.570312 46.984375 52.398438 46.984375 50.230469 C 46.960938 49.457031 47.140625 48.691406 47.511719 48.011719 C 48.335938 46.546875 50.328125 45.925781 51.8125 46.667969 C 52.292969 46.878906 52.601562 47.351562 52.59375 47.871094 C 52.59375 48.160156 52.59375 48.445312 52.59375 48.789062 C 52.152344 48.742188 51.753906 48.695312 51.355469 48.660156 C 51.144531 48.632812 50.925781 48.621094 50.710938 48.617188 C 50.164062 48.625 49.859375 48.851562 49.691406 49.363281 C 49.53125 49.910156 49.453125 50.476562 49.464844 51.042969 C 49.453125 52.355469 49.453125 53.667969 49.453125 54.980469 C 49.453125 56.644531 49.453125 58.3125 49.453125 59.976562 Z M 49.429688 60.46875 "></path><path style=" stroke:none;fill-rule:nonzero;fill:rgb(0%,32.156864%,12.156863%);fill-opacity:1;" d="M 34.621094 47.335938 L 34.621094 43.273438 C 35.1875 43.222656 35.703125 43.207031 36.207031 43.378906 C 36.546875 43.472656 36.804688 43.742188 36.886719 44.085938 C 36.984375 44.460938 37.046875 44.851562 37.0625 45.238281 C 37.089844 47.167969 37.101562 49.097656 37.085938 51.023438 C 37.078125 51.726562 37.011719 52.433594 36.894531 53.128906 C 36.605469 54.8125 35.589844 55.851562 33.921875 56.214844 C 32.949219 56.445312 31.933594 56.417969 30.980469 56.128906 C 29.75 55.769531 28.761719 54.851562 28.3125 53.660156 C 27.558594 51.785156 27.660156 49.929688 28.644531 48.160156 C 29.59375 46.46875 31.492188 46.023438 32.847656 46.34375 C 33.296875 46.4375 33.707031 46.664062 34.03125 46.992188 C 34.179688 47.132812 34.339844 47.269531 34.507812 47.394531 Z M 34.644531 51.496094 C 34.632812 51.308594 34.621094 51.082031 34.585938 50.855469 C 34.519531 50.214844 34.289062 49.601562 33.914062 49.074219 C 33.570312 48.554688 32.976562 48.257812 32.355469 48.289062 C 31.429688 48.332031 30.804688 48.8125 30.464844 49.636719 C 30.125 50.492188 30.09375 51.433594 30.375 52.304688 C 30.53125 52.910156 30.867188 53.449219 31.351562 53.851562 C 32.429688 54.722656 33.8125 54.394531 34.347656 53.121094 C 34.546875 52.601562 34.648438 52.046875 34.648438 51.496094 Z M 34.644531 51.496094 "></path><path style=" stroke:none;fill-rule:nonzero;fill:rgb(0%,32.156864%,12.156863%);fill-opacity:1;" d="M 54.777344 49.304688 C 54.554688 47.976562 55.125 46.992188 56.386719 46.582031 C 57.527344 46.191406 58.757812 46.167969 59.914062 46.511719 C 60.972656 46.8125 61.804688 47.640625 62.097656 48.695312 C 62.289062 49.339844 62.386719 50.003906 62.386719 50.675781 C 62.40625 51.496094 62.386719 52.316406 62.363281 53.136719 C 62.324219 54.523438 61.527344 55.660156 59.996094 56.128906 C 58.648438 56.566406 57.183594 56.449219 55.925781 55.800781 C 54.835938 55.253906 54.320312 54.324219 54.269531 53.140625 C 54.234375 52.378906 54.59375 51.65625 55.21875 51.210938 C 55.746094 50.820312 56.367188 50.554688 57.015625 50.4375 C 57.734375 50.296875 58.472656 50.226562 59.207031 50.238281 C 59.421875 50.238281 59.632812 50.238281 59.828125 50.238281 C 60.121094 49.367188 59.816406 48.707031 59.003906 48.507812 C 57.800781 48.21875 56.613281 48.246094 55.503906 48.90625 C 55.273438 49.039062 55.027344 49.164062 54.777344 49.304688 Z M 58.90625 51.925781 C 58.421875 51.90625 57.941406 51.988281 57.492188 52.164062 C 57.082031 52.34375 56.820312 52.617188 56.789062 53.074219 C 56.761719 53.488281 56.976562 53.882812 57.34375 54.082031 C 57.757812 54.339844 58.253906 54.433594 58.734375 54.339844 C 59.21875 54.257812 59.652344 54.046875 59.824219 53.5625 C 59.953125 53.179688 60.027344 52.785156 60.058594 52.382812 C 60.085938 52.085938 59.933594 51.953125 59.625 51.933594 C 59.410156 51.914062 59.195312 51.925781 58.898438 51.925781 Z M 58.90625 51.925781 "></path><path style=" stroke:none;fill-rule:nonzero;fill:rgb(0%,32.156864%,12.156863%);fill-opacity:1;" d="M 57.511719 63.71875 C 57.613281 63.351562 57.5625 62.964844 57.367188 62.636719 C 57.175781 62.3125 56.855469 62.078125 56.484375 61.996094 C 55.828125 61.828125 55.144531 61.8125 54.484375 61.953125 C 53.878906 62.035156 53.304688 62.269531 52.8125 62.632812 C 52.667969 62.734375 52.515625 62.828125 52.359375 62.917969 C 52.332031 62.828125 52.3125 62.734375 52.296875 62.640625 C 52.242188 61.351562 52.761719 60.558594 53.992188 60.128906 C 55.164062 59.714844 56.441406 59.707031 57.617188 60.109375 C 58.667969 60.453125 59.324219 61.148438 59.664062 62.191406 C 59.847656 62.761719 59.949219 63.359375 59.964844 63.960938 C 59.988281 64.800781 59.996094 65.648438 59.964844 66.492188 C 59.953125 66.871094 59.890625 67.246094 59.777344 67.609375 C 59.496094 68.570312 58.726562 69.324219 57.75 69.585938 C 56.492188 69.988281 55.140625 69.960938 53.902344 69.5 C 53.6875 69.421875 53.480469 69.324219 53.28125 69.207031 C 51.78125 68.320312 51.664062 66.855469 52.082031 65.664062 C 52.285156 65.140625 52.679688 64.707031 53.191406 64.460938 C 53.914062 64.089844 54.714844 63.882812 55.527344 63.839844 C 56.082031 63.792969 56.640625 63.78125 57.199219 63.746094 C 57.296875 63.742188 57.402344 63.730469 57.511719 63.71875 Z M 57.578125 65.566406 C 57.460938 65.53125 57.347656 65.507812 57.230469 65.496094 C 56.644531 65.515625 56.066406 65.519531 55.488281 65.585938 C 55.238281 65.625 55 65.726562 54.800781 65.875 C 54.214844 66.273438 54.175781 66.890625 54.679688 67.382812 C 55.109375 67.804688 55.722656 68 56.320312 67.902344 C 57.101562 67.792969 57.484375 67.394531 57.566406 66.605469 C 57.585938 66.261719 57.589844 65.914062 57.574219 65.566406 Z M 57.578125 65.566406 "></path><path style=" stroke:none;fill-rule:nonzero;fill:rgb(0%,32.156864%,12.156863%);fill-opacity:1;" d="M 18.949219 56.125 C 18.515625 56.207031 18.066406 56.191406 17.644531 56.078125 C 17.226562 55.972656 16.894531 55.660156 16.769531 55.25 C 16.652344 54.917969 16.585938 54.570312 16.574219 54.214844 C 16.574219 52.707031 16.574219 51.191406 16.65625 49.683594 C 16.769531 47.621094 18.652344 46.429688 20.171875 46.273438 C 20.867188 46.183594 21.574219 46.222656 22.253906 46.394531 C 23.792969 46.824219 24.652344 47.886719 25.003906 49.390625 C 25.113281 49.855469 25.167969 50.332031 25.167969 50.8125 C 25.1875 52.464844 25.175781 54.109375 25.167969 55.769531 C 25.167969 55.878906 25.15625 55.988281 25.144531 56.125 C 24.5 56.226562 23.894531 56.210938 23.34375 55.84375 C 23.070312 55.648438 22.886719 55.359375 22.832031 55.03125 C 22.714844 54.371094 22.675781 53.699219 22.710938 53.03125 C 22.71875 52.164062 22.710938 51.292969 22.679688 50.429688 C 22.652344 50.074219 22.570312 49.726562 22.4375 49.402344 C 22.191406 48.738281 21.667969 48.417969 20.96875 48.390625 C 19.894531 48.351562 19.148438 48.992188 19.011719 50.09375 C 18.957031 50.542969 18.933594 50.996094 18.933594 51.449219 C 18.933594 52.863281 18.933594 54.273438 18.933594 55.6875 Z M 18.949219 56.125 "></path><path style=" stroke:none;fill-rule:nonzero;fill:rgb(0%,32.156864%,12.156863%);fill-opacity:1;" d="M 69.449219 62.742188 C 69.222656 62.636719 69.074219 62.570312 68.941406 62.492188 C 67.851562 61.832031 66.683594 61.796875 65.480469 62.015625 C 65.171875 62.066406 64.90625 62.25 64.746094 62.515625 C 64.503906 62.921875 64.601562 63.34375 65.039062 63.527344 C 65.40625 63.664062 65.78125 63.765625 66.167969 63.839844 C 66.722656 63.972656 67.292969 64.058594 67.832031 64.222656 C 68.875 64.53125 69.511719 65.210938 69.6875 66.304688 C 69.894531 67.292969 69.523438 68.3125 68.726562 68.945312 C 67.945312 69.609375 67.007812 69.894531 65.992188 69.960938 C 65.167969 70.027344 64.335938 69.863281 63.597656 69.488281 C 62.804688 69.078125 62.40625 68.453125 62.492188 67.554688 C 62.507812 67.378906 62.519531 67.203125 62.539062 66.96875 C 62.6875 67.023438 62.832031 67.085938 62.972656 67.160156 C 63.925781 67.738281 64.96875 67.875 66.054688 67.777344 C 66.296875 67.75 66.535156 67.6875 66.757812 67.589844 C 67.058594 67.492188 67.261719 67.21875 67.269531 66.902344 C 67.292969 66.578125 67.121094 66.273438 66.832031 66.121094 C 66.628906 66.011719 66.414062 65.929688 66.191406 65.882812 C 65.644531 65.765625 65.09375 65.683594 64.546875 65.570312 C 64.273438 65.511719 64.003906 65.441406 63.746094 65.34375 C 62.757812 65 62.269531 64.273438 62.21875 63.257812 C 62.15625 62.390625 62.5 61.539062 63.152344 60.953125 C 64.378906 59.800781 66.617188 59.433594 68.148438 60.121094 C 69.011719 60.507812 69.484375 61.132812 69.457031 62.09375 C 69.445312 62.269531 69.449219 62.457031 69.449219 62.742188 Z M 69.449219 62.742188 "></path><path style=" stroke:none;fill-rule:nonzero;fill:rgb(0%,32.156864%,12.156863%);fill-opacity:1;" d="M 31.109375 60.066406 C 31.097656 59.738281 31.082031 59.472656 31.066406 59.152344 C 31.804688 59.578125 32.46875 60.03125 33.179688 60.363281 C 33.894531 60.695312 34.648438 60.886719 35.398438 61.214844 C 35.21875 61.257812 35.042969 61.308594 34.859375 61.339844 C 33.347656 61.597656 31.839844 61.890625 30.316406 62.101562 C 29.179688 62.238281 28.019531 62.125 26.929688 61.769531 C 26.296875 61.570312 25.714844 61.242188 25.214844 60.804688 C 24.90625 60.546875 24.601562 60.28125 24.304688 60.003906 C 23.269531 59.054688 21.957031 58.457031 20.554688 58.296875 C 19.980469 58.222656 19.402344 58.175781 18.804688 58.0625 C 18.949219 58.003906 19.097656 57.953125 19.246094 57.921875 C 20.140625 57.835938 21.042969 57.71875 21.9375 57.699219 C 24.132812 57.644531 26.3125 58.03125 28.347656 58.832031 C 29.152344 59.144531 29.925781 59.539062 30.710938 59.894531 C 30.828125 59.953125 30.945312 60 31.109375 60.066406 Z M 31.109375 60.066406 "></path><path style=" stroke:none;fill-rule:nonzero;fill:rgb(0%,32.156864%,12.156863%);fill-opacity:1;" d="M 13.316406 56.15625 C 12.957031 56.179688 12.597656 56.179688 12.238281 56.15625 C 11.523438 56.109375 10.957031 55.53125 10.921875 54.816406 C 10.890625 54.492188 10.875 54.164062 10.875 53.835938 C 10.875 50.675781 10.875 47.511719 10.875 44.347656 C 10.875 44.226562 10.882812 44.097656 10.894531 43.945312 C 11.449219 43.808594 11.996094 43.746094 12.535156 43.945312 C 12.921875 44.097656 13.203125 44.441406 13.277344 44.851562 C 13.363281 45.214844 13.410156 45.589844 13.425781 45.972656 C 13.4375 46.585938 13.378906 47.203125 13.378906 47.820312 C 13.378906 49.34375 13.40625 50.871094 13.40625 52.394531 C 13.40625 53.492188 13.382812 54.585938 13.363281 55.683594 C 13.367188 55.828125 13.335938 55.980469 13.316406 56.15625 Z M 13.316406 56.15625 "></path><path style=" stroke:none;fill-rule:nonzero;fill:rgb(0%,32.156864%,12.156863%);fill-opacity:1;" d="M 40.535156 45.410156 C 41.011719 45.335938 41.5 45.367188 41.960938 45.5 C 42.425781 45.640625 42.765625 46.039062 42.8125 46.523438 C 42.859375 46.808594 42.878906 47.101562 42.875 47.390625 C 42.875 49.171875 42.875 50.949219 42.875 52.726562 C 42.875 52.976562 42.894531 53.230469 42.945312 53.476562 C 43 53.828125 43.277344 54.101562 43.628906 54.15625 C 43.804688 54.1875 43.980469 54.214844 44.15625 54.230469 C 44.34375 54.242188 44.53125 54.257812 44.730469 54.265625 C 44.871094 54.597656 44.90625 54.957031 44.832031 55.308594 C 44.761719 55.75 44.40625 56.09375 43.957031 56.15625 C 43.285156 56.300781 42.582031 56.246094 41.9375 55.992188 C 41.433594 55.792969 41.035156 55.394531 40.835938 54.898438 C 40.601562 54.339844 40.476562 53.738281 40.460938 53.132812 C 40.445312 52.710938 40.449219 52.296875 40.453125 51.882812 C 40.46875 50.0625 40.484375 48.25 40.507812 46.429688 C 40.519531 46.097656 40.527344 45.761719 40.535156 45.410156 Z M 40.535156 45.410156 "></path></g></svg>