<svg xmlns="http://www.w3.org/2000/svg" viewBox="0 0 400.33 400"><defs><style>.cls-1{fill:#e61d2a;}.cls-2{fill:none;}</style></defs><g id="Layer_2" data-name="Layer 2"><g id="Layer_1-2" data-name="Layer 1"><path class="cls-1" d="M287.22,227.87c4.71.23,6.57-1,8.46-4.83,12.41-25.45,27.5-49.06,48.27-68.63,6-5.61,12-11.22,19.78-14.37a15.69,15.69,0,0,1,5-1c3-.13,4.51,1.39,4.71,4.49a18.59,18.59,0,0,1-3.4,11.45c-.69,1.05-2.56,1.33-3.89,2l-.31-.59a80.71,80.71,0,0,0,3.23-7.63c.45-1.44.12-3.13.14-4.7-1.44.45-3.12.57-4.26,1.42a106.64,106.64,0,0,0-20.14,20c-11.87,14.95-21.8,31.15-30.76,48-.58,1.1-1,2.27-1.54,3.4l.53.51c3.65-3.05,7.44-6,10.94-9.17a260.81,260.81,0,0,0,30.07-32.69c.86-1.11,2.91-1.32,4.4-1.95l.54.78c-3.52,4.48-6.9,9.07-10.57,13.42-10.51,12.44-21.77,24.18-35.07,33.7a19.86,19.86,0,0,0-8,10.64c-1.63,5.3-3.27,10.6-4.85,15.92a3.87,3.87,0,0,0-.15,2.22c.48,1.33.95,3.1,2,3.66.82.44,2.94-.26,3.67-1.13a163.59,163.59,0,0,0,10.94-14c6.57-9.81,12.73-19.93,21.46-28.06a82.47,82.47,0,0,1,10.38-7.89A13.47,13.47,0,0,1,354.1,201c3.69-.56,6.37,1.18,8.13,4.31.28-.08.49-.09.51-.17,1-2.65,3-3,5.57-2.86,2.82.19,5.67.05,8.83.05-3.14,5.57-6.1,10.86-9.09,16.13q-8.22,14.5-16.46,29a10.08,10.08,0,0,0-1.18,2.67,14.25,14.25,0,0,0-.1,2.93c1-.19,2.32,0,3.05-.62a49.68,49.68,0,0,0,7.22-6.42c3-3.46,5.57-7.28,8.23-11,1.9-2.67,1.84-2.71,5.81-2.35-2.29,3.4-4.35,6.67-6.63,9.78-4.53,6.2-9.18,12.34-15.29,17.1a47.67,47.67,0,0,1-8,5c-5.71,2.85-10.18-.29-9.74-6.66.05-.72.13-1.44.2-2.13-3.39,2.62-6.63,5.27-10,7.66a11.6,11.6,0,0,1-4.74,1.94c-5,.79-8.21-1.89-8.68-7.06-.16-1.77,0-3.57,0-5.63-2,2.12-3.71,4.17-5.67,6a45.79,45.79,0,0,1-6.35,5c-6.78,4.3-13.78.71-13.6-7.31.1-4.8,1.38-9.62,2.48-14.34.85-3.64,2.25-7.15,3.48-10.94a53.41,53.41,0,0,0-6.41.68c-.74.16-1.42,1.2-1.87,2a108.05,108.05,0,0,1-13.8,19.47c-4.43,4.77-9.25,9.09-15.47,11.42-7.15,2.68-12.09-.63-12.46-8.28-.3-6.08,1.46-11.76,3.93-17.19,5.85-12.85,13.81-24.18,25.21-32.71a34.64,34.64,0,0,1,10.42-5.16c6.3-1.92,10.41,1.53,10.62,8.12.19,5.84-1.95,11-4.22,16.22-.24.55-.52,1.08-.76,1.63C287.15,227.4,287.21,227.57,287.22,227.87Zm40.15,21.61c-.05,3.55,1.92,4.78,4.38,3.08a19.72,19.72,0,0,0,5.2-4.89c4.64-6.92,9.08-14,13.43-21.06,3.18-5.18,6.14-10.49,9.11-15.8a2.68,2.68,0,0,0,.05-2.39,3.45,3.45,0,0,0-2.47-1,4.39,4.39,0,0,0-2.44,1,71.08,71.08,0,0,0-6.27,5.48c-6.55,6.73-11.48,14.64-16.16,22.7C329.8,240.79,327.67,245.14,327.37,249.48Zm-57.08-28c-.33.22-.59.29-.69.46-3.29,5.46-6.78,10.82-9.78,16.44-1.79,3.34-3.14,7-2.7,11,.33,3,2.47,4.45,5.27,3.44a13.67,13.67,0,0,0,4.25-2.45c6.2-5.32,10.57-12,14.28-19.34C276.47,228.73,272.59,226,270.29,221.47Zm13.08,5.78c1.34-3.33,2.88-6.51,3.87-9.85a24.48,24.48,0,0,0,.81-7.3c-.05-3-2.1-4.25-4.94-3.49-4.46,1.19-8.52,6.17-8.58,10.51C274.47,221.68,277.8,225.7,283.37,227.25Z"></path><path class="cls-1" d="M93.7,197a2.41,2.41,0,0,0-.44-.07c-6.13,1.52-6.18,1.5-9.58,7.46A78.89,78.89,0,0,1,66.05,226.2a46.5,46.5,0,0,1-10.15,6.59c-7.26,3.33-13.15-.7-13.45-8.67-.3-7.79,2.17-14.85,5.7-21.56a79.81,79.81,0,0,1,24.5-28.48,24.83,24.83,0,0,1,11.27-4.86c5.84-.73,9.62,2.45,9.85,8.33.18,4.85-1.44,9.32-3.09,13.76-.25.67-.53,1.33-.8,2l.42.57c1.77-.83,3.78-1.36,5.27-2.54,4.18-3.3,8.23-6.77,12.16-10.37,4.5-4.12,8.8-8.58,14.69-10.65a19.11,19.11,0,0,1,8.13-.86c4.17.45,6.64,3.6,6.62,7.83,0,5.85-2.71,10.55-7,14.3-1.24,1.07-2.87,1.72-4.59.68s-1.78-2.67-1.5-4.37c.58-3.45,3.81-7.21,6.9-7.57,1.79-.2,2.74-.69,2.41-2.55s-1.62-2.87-3.4-2.51a10.89,10.89,0,0,0-4.7,1.93,72.38,72.38,0,0,0-8.32,7.91,78.8,78.8,0,0,0-16.26,29.35,5.9,5.9,0,0,0-.29,1.31c-.19,3.06-.31,6.21,2.68,8.1,2.8,1.78,5.55.52,8.08-.9,5.43-3,9.58-7.55,13.37-12.32,5.79-7.29,11.16-14.93,17-22.22,5.26-6.6,10.94-12.85,18.43-17.09a19.08,19.08,0,0,1,2.84-1.38c4.33-1.62,8.16-1.12,11.23,3.29.85-3,3-2.54,5-2.53,2.83,0,5.66,0,9,0l-6.7,11.62q-9.83,17.1-19.66,34.19c-.76,1.34-2,3.07-.42,4.2.71.5,3-.27,3.89-1.15,4.32-4.27,8.42-8.77,12.57-13.2a9.75,9.75,0,0,0,1.62-2.17c1.18-2.37,3.1-2.68,5.76-2.11-2,2.82-3.86,5.52-5.82,8.15-5.4,7.27-11.21,14.17-18.57,19.57a24.57,24.57,0,0,1-6.27,3.48c-5.44,1.9-9.08-1.09-8.66-6.86.05-.66.16-1.32.24-2l-.72-.64a21.6,21.6,0,0,1-2.88,3.58,51.3,51.3,0,0,1-7.15,5c-3.25,1.83-6.77,2.35-10-.07s-2.85-6.06-2.37-9.52c.24-1.75.76-3.46,1.25-5.62-3.67,3.35-6.9,6.49-10.33,9.38-4.65,3.93-9.74,7-16.11,7.33C91,234.32,87,229.71,85.9,223.84c-1.26-6.71,1-12.62,3.63-18.48C90.8,202.56,92.27,199.85,93.7,197Zm47.37,24.7a5.37,5.37,0,0,0,1.64-.85c2.61-2.56,5.73-4.83,7.61-7.86,7.08-11.42,13.76-23.08,20.55-34.69.31-.54.47-1.65.16-2a3.63,3.63,0,0,0-2.32-1,4,4,0,0,0-2.5.87,54.51,54.51,0,0,0-6.71,6.25c-6.92,8.33-13.58,16.87-18.13,26.8a61.81,61.81,0,0,0-3.19,9.33C137.68,220.35,139,221.74,141.07,221.69ZM83,197.85c-5.21-1.61-9.27-4.21-12-9-2.26,3.48-4.4,6.56-6.31,9.77C61.67,203.77,59,209.13,58,215.17c-.33,2.13.09,4.15,1.87,5.47s3.59.41,5.3-.42a8.36,8.36,0,0,0,1.51-1C73.9,213.59,78.38,205.89,83,197.85Zm2.08-22.94c-3.48.19-5.83,2.63-7.75,5.48-3.9,5.8-.63,12.53,6.38,13.24.58.06,1.58-.11,1.76-.47,2.08-4.26,4.11-8.61,3.93-13.48C89.3,176.4,87.82,174.92,85.11,174.91Z"></path><path class="cls-1" d="M211,239.59c2.37-14.36,7.09-27.47,20.47-35.55a26.72,26.72,0,0,1,8.21-3c4.86-1,8.6,1.94,9.48,7,1,5.92-.17,11.58-2.36,17-6,14.85-15.26,27.22-29,36a27.37,27.37,0,0,1-12.64,4.47c-9.94.81-17.6-5-20.15-15.28-2-8-1-15.83,1.46-23.55,6.48-20.52,18-38.09,32-54.15,9.49-10.9,20-20.61,32.86-27.56,5.9-3.19,12-6,18.72-6.94,4.4-.64,8.52-.14,12.16,2.76a3.32,3.32,0,0,0,2.43.13c4.1-.93,8.12-2.35,12.26-2.85a30.44,30.44,0,0,1,17.94,3.32c8.32,4.34,16.45,9,24.85,13.68l-9.83,10.47c-2.53-1.52-5.1-3-7.63-4.6-6.07-3.76-11.94-7.91-18.25-11.22-4.05-2.13-8.74-3.06-13.16-4.46a6.75,6.75,0,0,0-2.25-.12c-3.09.12-3.34.34-3.27,3.37.16,7.3-2.28,14-5.65,20.19s-7.53,12.36-13.46,16.78c-3,2.27-6.28,4.14-10.24,4.2a5.22,5.22,0,0,1-5.23-3.56c-1.55-3.75-.77-7.37.65-11,5.12-12.93,14.1-22.57,25.57-30.11.49-.33,1-.64,1.53-1-2-1.36-4.92-1.4-8.31.07a68.69,68.69,0,0,0-17.78,11.42c-13.72,12-24.9,26.07-34.53,41.46-4.79,7.67-9.32,15.5-12.09,24.12a152.38,152.38,0,0,0-4.44,18.8,17.43,17.43,0,0,0,.55,7.58c2,7.34,8.82,10.27,15.87,7,6.15-2.85,10.9-7.46,15.06-12.67,5.39-6.75,9.85-14.05,11.87-22.56a34.27,34.27,0,0,0,.86-8c0-3.23-2.17-4.71-5.16-3.55a12.46,12.46,0,0,0-4.58,3.09,32.45,32.45,0,0,0-8,15.44,4.53,4.53,0,0,1-2.33,3c-3.86,2.57-7.58,5.36-11.29,8.17a21.83,21.83,0,0,0-2.56,2.77Zm70.57-92.33c-.88.38-1.37.54-1.8.79-11.26,6.63-19.31,16.12-24.68,27.92a16.5,16.5,0,0,0-1.41,5.17c-.35,3.82,2.3,5.55,5.81,3.94a12.67,12.67,0,0,0,1.95-1.13c11.06-7.63,17.39-18.26,19.8-31.33A45.6,45.6,0,0,0,281.56,147.26Z"></path><path class="cls-1" d="M172.65,267.71a50.58,50.58,0,0,0-21.05-8.2,52.94,52.94,0,0,0-12.58-.15c-5.24.57-9.34,3.51-12.34,8a63.48,63.48,0,0,0-5-5.8c-6.25-5.78-14-7.64-22.24-7.91-11.06-.36-21.63,2.23-32.26,4.86-10.35,2.57-20.78,5-31.3,6.65-9.74,1.55-18.9-.65-26.53-7.39-5.62-4.95-8-11.49-8.95-18.68-1.13-8.44.12-16.65,2.47-24.73,5.51-19,16-35.05,29.62-49.16,9.78-10.12,20.53-19,33.75-24.41a43.33,43.33,0,0,1,14.63-3.4c7.35-.34,12.66,5.25,10.6,13.21-.95,3.65-3.19,7.06-5.29,10.29-1.54,2.38-5.31,3.15-7,2.07s-2.08-4.39-.59-7.25c1.62-3.13,3.77-5.59,7.65-5.92.54-.05,1.47-1.13,1.39-1.59-.25-1.38-.57-3.08-1.52-3.91a5.77,5.77,0,0,0-4-.86C77.16,144,73,146.38,69,149.09c-9.63,6.56-17.26,15.17-24.44,24.19-7.9,9.92-14.82,20.47-19.81,32.17-4.18,9.8-7.72,19.82-7.08,30.69a31.53,31.53,0,0,0,2.16,10c3.36,8.09,10.59,10.9,18.53,12.14,8.15,1.26,16-.86,23.85-2.68,13.55-3.13,27-6.67,40.6-9.59a87.25,87.25,0,0,1,32.77-1.19c11.73,2,21.19,8.23,30.07,15.6,2.58,2.15,5,4.54,7.46,6.81Z"></path><path class="cls-1" d="M400.33,139.46c-11.74,22-37.76,36.59-56.81,31.27,2.93-3.49,5.73-6.87,8.61-10.19a2.15,2.15,0,0,1,1.59-.48c12,.88,22.68-3.17,32.44-9.69C391.2,147,395.8,143,400.33,139.46Z"></path><path class="cls-1" d="M209,170.73c-2.21,3.6-4.15,6.79-6.15,10-.25.4-.75.88-1.15.89-3.56.07-7.13,0-11.16,0,2.27-3.7,4.26-7,6.32-10.27a1.76,1.76,0,0,1,1.33-.58C201.63,170.71,205.08,170.73,209,170.73Z"></path><rect class="cls-2" width="400" height="400"></rect></g></g></svg>