<svg xmlns="http://www.w3.org/2000/svg" viewBox="0 0 400 400"><defs><style>.cls-1{fill:none;}</style></defs><g id="Layer_2" data-name="Layer 2"><g id="Layer_1-2" data-name="Layer 1"><path d="M86.58,246.66V182h15.64c.22,1.82.44,3.64.48,4,7.13-2.19,14.09-5.38,21.33-6.29,8.31-1,14.46,4,18.65,10.79,4.27-3,8.22-6.44,12.75-8.76,12.08-6.2,31.88-.66,32.29,18.68.32,15.25.06,30.51.06,46.18H172.05c0-4.88.07-9.8,0-14.72-.15-8.53-.17-17.06-.66-25.57-.46-7.89-4-11.87-10.13-12.32-6.9-.5-13.79,4.33-14.58,11.48-.9,8.22-.64,16.59-.79,24.89-.09,5.22,0,10.43,0,16.14H129.08c0-10.8.06-21.68,0-32.56a88.88,88.88,0,0,0-.87-9.76c-.7-5.64-3.77-9.43-9.53-10.1-6.07-.7-10.84,2-13.33,7.52a27.19,27.19,0,0,0-2.42,10c-.29,11.54-.11,23.09-.11,35Z"></path><path d="M221.58,241.32,220,246.76H205.59V156h15.28v31.38c20.93-11.11,34.13-9.78,45.23,4,10.22,12.64,9.61,34.22-1.31,46.61C253.41,250.87,240,252,221.58,241.32Zm-1.4-27.83c-.09,12.23,7.7,21,18.62,20.87,10.25-.08,18.26-8.71,18.43-19.87.18-11.75-7.58-20.39-18.39-20.47C228.25,194,220.25,202.29,220.18,213.49Z"></path><path d="M52.08,187.61l.85-5.72h15.2v64.23c-11.3,2.62-14.93,1.62-16.13-5.4-9.06,7.26-19.17,11.11-29.83,6.12a42.41,42.41,0,0,1-16-12.79c-9.85-13.72-7.44-34.55,4.06-45.82S35.17,176.59,52.08,187.61Zm1.56,26.31c-.08-11.42-8.47-20.11-19.2-19.89-10.34.21-18.54,9.13-18.47,20.06s8.71,20.29,19,20.27S53.73,225.18,53.64,213.92Z"></path><path d="M349.15,234.87c-10.69,14.37-32,18.38-47.85,9.2-14.81-8.59-20.87-28.15-13.67-44.14,7.46-16.56,25-24.39,42.69-19,16,4.87,26.23,21.1,23.05,37.58H301.09c.42,14.44,17.53,20.64,28.28,13.94C337.89,227.12,342.87,231.43,349.15,234.87Zm-11.62-29c-2.83-8.62-10.51-13.72-18.74-13.12-8.68.63-15,5.58-16.46,13.12Z"></path><path d="M364.86,182H378c.26,1.75.54,3.55.94,6.22,5.67-6.92,11.73-11.3,20.7-7l-4.47,12.38c-10,.24-13.63,3.25-14,13.06-.44,13.06-.11,26.13-.11,39.8H364.86Z"></path><rect class="cls-1" width="400" height="400"></rect></g></g></svg>